<?xml version="1.0" encoding="UTF-8"?>
<svg width="23px" height="24px" viewBox="0 0 23 24" version="1.1" xmlns="http://www.w3.org/2000/svg" xmlns:xlink="http://www.w3.org/1999/xlink">
    <title>编组 3</title>
    <g id="新手引导" stroke="none" stroke-width="1" fill="none" fill-rule="evenodd">
        <g id="编组-7备份" transform="translate(-380.159345, -22.205247)">
            <g id="编组-3" transform="translate(380.409345, 22.955247)">
                <circle id="椭圆形" fill="#E5ECFF" cx="11.25" cy="11.25" r="10"></circle>
                <path d="M11.25,0 C17.4632034,0 22.5,5.03679656 22.5,11.25 C22.5,17.4632034 17.4632034,22.5 11.25,22.5 C5.03679656,22.5 0,17.4632034 0,11.25 C0,5.03679656 5.03679656,0 11.25,0 Z M11.25,1.25 C5.7271525,1.25 1.25,5.7271525 1.25,11.25 C1.25,16.7728475 5.7271525,21.25 11.25,21.25 C16.7728475,21.25 21.25,16.7728475 21.25,11.25 C21.25,5.7271525 16.7728475,1.25 11.25,1.25 Z" id="椭圆形" fill="#2647A9" fill-rule="nonzero"></path>
                <path d="M10.4564972,5.01869752 L12.1231639,5.09882572 L12.1228306,10.4346975 L17.5398306,10.4353642 L17.453025,12.1020308 L12.1228306,12.1016975 L12.1231639,17.5186975 L10.4564972,17.4385693 L10.4558306,12.1016975 L5.03983056,12.1020308 L5.12663612,10.4353642 L10.4558306,10.4346975 L10.4564972,5.01869752 Z" id="形状结合" fill="#2647A9" transform="translate(11.289831, 11.268698) rotate(-315.000000) translate(-11.289831, -11.268698) "></path>
            </g>
        </g>
    </g>
</svg>